<svg xmlns="http://www.w3.org/2000/svg" viewBox="0 0 512 512">
  <!-- PicTalk: a camera with a voice wave in the lens, white on black -->
  <rect width="512" height="512" rx="96" fill="#000"/>
  <path d="M182 150l22-34h104l22 34h54a38 38 0 0 1 38 38v172a38 38 0 0 1-38 38H128a38 38 0 0 1-38-38V188a38 38 0 0 1 38-38z"
        fill="none" stroke="#f2f2f7" stroke-width="28" stroke-linejoin="round"/>
  <circle cx="256" cy="274" r="78" fill="#0a84ff"/>
  <g stroke="#fff" stroke-width="16" stroke-linecap="round">
    <line x1="216" y1="258" x2="216" y2="290"/>
    <line x1="243" y1="236" x2="243" y2="312"/>
    <line x1="270" y1="248" x2="270" y2="300"/>
    <line x1="297" y1="262" x2="297" y2="286"/>
  </g>
</svg>
